<svg width="239" height="239" viewBox="0 0 239 239" fill="none" xmlns="http://www.w3.org/2000/svg">
<path d="M107.987 6C144.997 6.00016 175 36.0027 175 73.0127C175 110.023 144.997 140.026 107.987 140.026C70.9771 140.026 40.9736 110.023 40.9736 73.0127C40.9738 36.0026 70.9772 6 107.987 6ZM107.987 27.4443C82.8204 27.4443 62.4181 47.8459 62.418 73.0127C62.418 98.1797 82.8203 118.582 107.987 118.582C133.154 118.582 153.556 98.1796 153.556 73.0127C153.556 47.846 133.154 27.4445 107.987 27.4443Z" fill="white"/>
<rect x="41" y="74" width="21" height="153" fill="white"/>
<rect x="108" y="136.605" width="21.4442" height="107.138" transform="rotate(-32.7648 108 136.605)" fill="white"/>
<ellipse cx="8" cy="8.5" rx="8" ry="8.5" transform="matrix(1 0 0 -1 119 72)" fill="white"/>
<mask id="mask0_585_29" style="mask-type:alpha" maskUnits="userSpaceOnUse" x="82" y="65" width="17" height="17">
<circle cx="8.04156" cy="8.04156" r="8.04156" transform="matrix(1 0 0 -1 82 81.083)" fill="black"/>
</mask>
<g mask="url(#mask0_585_29)">
<circle cx="8.04156" cy="8.04156" r="8.04156" transform="matrix(1 0 0 -1 82 78.4026)" fill="white"/>
</g>
<mask id="path-7-inside-1_585_29" fill="white">
<path d="M134.173 77.1145C142.426 79.3868 147.275 87.9195 145.002 96.1728C142.73 104.426 134.197 109.275 125.944 107.002C117.691 104.73 112.842 96.1972 115.115 87.9439C117.387 79.6906 125.92 74.8421 134.173 77.1145ZM131.351 91.7711C130.819 91.6246 130.268 91.9373 130.121 92.4698C129.975 93.0022 130.288 93.5527 130.82 93.6993C131.353 93.8459 131.903 93.5331 132.05 93.0007C132.196 92.4682 131.884 91.9177 131.351 91.7711ZM141.166 88.2774C141.383 86.6723 140.258 85.1951 138.652 84.9782C137.047 84.7613 135.57 85.8873 135.353 87.4924C135.136 89.0973 136.263 90.574 137.867 90.7909C139.472 91.0075 140.949 89.8823 141.166 88.2774Z"/>
</mask>
<path d="M134.173 77.1145C142.426 79.3868 147.275 87.9195 145.002 96.1728C142.73 104.426 134.197 109.275 125.944 107.002C117.691 104.73 112.842 96.1972 115.115 87.9439C117.387 79.6906 125.92 74.8421 134.173 77.1145ZM131.351 91.7711C130.819 91.6246 130.268 91.9373 130.121 92.4698C129.975 93.0022 130.288 93.5527 130.82 93.6993C131.353 93.8459 131.903 93.5331 132.05 93.0007C132.196 92.4682 131.884 91.9177 131.351 91.7711ZM141.166 88.2774C141.383 86.6723 140.258 85.1951 138.652 84.9782C137.047 84.7613 135.57 85.8873 135.353 87.4924C135.136 89.0973 136.263 90.574 137.867 90.7909C139.472 91.0075 140.949 89.8823 141.166 88.2774Z" fill="white"/>
<path d="M131.351 91.7711L131.882 89.8428L131.882 89.8427L131.351 91.7711ZM130.82 93.6993L130.289 95.6275L130.289 95.6276L130.82 93.6993ZM141.166 88.2774L143.148 88.5452L143.148 88.5452L141.166 88.2774ZM138.652 84.9782L138.92 82.9962L138.92 82.9962L138.652 84.9782ZM135.353 87.4924L133.371 87.2246L133.371 87.2248L135.353 87.4924ZM137.867 90.7909L137.6 92.7729L137.6 92.7729L137.867 90.7909ZM134.173 77.1145L133.642 79.0427C140.83 81.0219 145.053 88.4536 143.074 95.642L145.002 96.1728L146.931 96.7037C149.496 87.3855 144.022 77.7518 134.704 75.1862L134.173 77.1145ZM145.002 96.1728L143.074 95.642C141.095 102.83 133.663 107.053 126.475 105.074L125.944 107.002L125.413 108.931C134.731 111.496 144.365 106.022 146.931 96.7037L145.002 96.1728ZM125.944 107.002L126.475 105.074C119.287 103.095 115.064 95.6632 117.043 88.4748L115.115 87.9439L113.186 87.413C110.621 96.7313 116.095 106.365 125.413 108.931L125.944 107.002ZM115.115 87.9439L117.043 88.4748C119.022 81.2865 126.454 77.0636 133.642 79.0427L134.173 77.1145L134.704 75.1862C125.386 72.6206 115.752 78.0948 113.186 87.413L115.115 87.9439ZM131.351 91.7711L131.882 89.8427C130.285 89.4033 128.633 90.3412 128.193 91.9389L130.121 92.4698L132.05 93.0007C131.903 93.5335 131.352 93.8458 130.82 93.6994L131.351 91.7711ZM130.121 92.4698L128.193 91.9389C127.753 93.5365 128.692 95.1876 130.289 95.6275L130.82 93.6993L131.351 91.7712C131.883 91.9177 132.196 92.4678 132.05 93.0007L130.121 92.4698ZM130.82 93.6993L130.289 95.6276C131.887 96.0674 133.538 95.129 133.978 93.5315L132.05 93.0007L130.121 92.4698C130.268 91.9373 130.819 91.6245 131.351 91.7711L130.82 93.6993ZM132.05 93.0007L133.978 93.5315C134.418 91.9341 133.479 90.2826 131.882 89.8428L131.351 91.7711L130.82 93.6993C130.288 93.5527 129.975 93.0022 130.121 92.4698L132.05 93.0007ZM141.166 88.2774L143.148 88.5452C143.512 85.846 141.62 83.3611 138.92 82.9962L138.652 84.9782L138.385 86.9602C138.895 87.0291 139.253 87.4987 139.184 88.0096L141.166 88.2774ZM138.652 84.9782L138.92 82.9962C136.22 82.6314 133.736 84.5252 133.371 87.2246L135.353 87.4924L137.335 87.7602C137.404 87.2494 137.874 86.8913 138.385 86.9602L138.652 84.9782ZM135.353 87.4924L133.371 87.2248C133.006 89.9252 134.901 92.4082 137.6 92.7729L137.867 90.7909L138.135 88.8089C137.624 88.7398 137.266 88.2695 137.335 87.76L135.353 87.4924ZM137.867 90.7909L137.6 92.7729C140.299 93.1373 142.783 91.2446 143.148 88.5452L141.166 88.2774L139.184 88.0096C139.115 88.5201 138.645 88.8777 138.135 88.8089L137.867 90.7909Z" fill="black" mask="url(#path-7-inside-1_585_29)"/>
</svg>
